# xmcd
#
# Track frame offsets:
#	182
#	15075
#	35655
#	54822
#	71607
#	89602
#	105757
#	120037
#	132770
#	146382
#	158782
#	172522
#	182687
#	201805
#	216010
#	232420
#	254007
#	271837
#	290007
#	305330
#
# Disc length: 4290 seconds
# Revision: 0
# Processed by: cddbd v1.5.2PL0 Copyright (c) Steve Scherf et al.
# Submitted via: dBpowerAMP V12.0
#
DISCID=0810c014
DTITLE=Dorival Caymmi  - Songbook -  Disco 3
DYEAR=1993
DGENRE=Brazil
TTITLE0=Sargaço Mar (Dori Caymmi)
TTITLE1=Das Rosas (Ivan Lins e Gilson Peranzzetta)
TTITLE2=O Vento (Joao Bosco)
TTITLE3=O Bem Do Mar (Tom e Ana Jobin)
TTITLE4=Doce Morrer No Mar (Ney Matogrosso)
TTITLE5=A Mãe D´Agua E a Menina (Clarice  e Geraldo Azevedo)
TTITLE6=Saudade Da Bahia (Os Cariocas)
TTITLE7=Requebre Que Eu Dou Um Doce (Joyce)
TTITLE8=O Que é Que Eu Dou (Eduardo Dusek)
TTITLE9=Eu Cheguei Lá (Martinho Da Villa e Manoel Da Conceiçao)
TTITLE10=Saudade (Jards Macalé)
TTITLE11=Can o Da Noiva (Edson Cordeiro e Miguel Briamonte)
TTITLE12=Rainha Do Mar (Leci Brandão)
TTITLE13=Canto De Naná (MPB4)
TTITLE14=Funeral (Tom Zé)
TTITLE15=Modinha Para Gabriela (Renata Arruda e Marco Pereira)
TTITLE16=Vou Ver Juliana (Sérgio Ricardo)
TTITLE17=O Dengo Da Nega (Gerônimo)
TTITLE18=Adalgisa (Batacotô)
TTITLE19=Eu Não Tenho Onde Morar (Luiz Melodia)
EXTD=
EXTT0=
EXTT1=
EXTT2=
EXTT3=
EXTT4=
EXTT5=
EXTT6=
EXTT7=
EXTT8=
EXTT9=
EXTT10=
EXTT11=
EXTT12=
EXTT13=
EXTT14=
EXTT15=
EXTT16=
EXTT17=
EXTT18=
EXTT19=
PLAYORDER=
